<svg width="166" height="49" xmlns="http://www.w3.org/2000/svg" xmlns:xlink="http://www.w3.org/1999/xlink"><defs><path id="a" d="M 0 0 h 94 v 48.3 H 0 z"/></defs><g fill="none" fill-rule="evenodd"><path d="M 0 14.1 v 0.1 l 27.9 13.1 L 56 14.2 v 0 L 27.9 1 L 0 14.1 z m 10.1 0.1 L 27.9 5.8 l 17.9 8.4 l -17.9 8.4 l -17.9 -8.4 z M 27.9 32.5 L 0 19.6 v 4.8 l 27.9 13 L 56 24.3 v -4.8 L 27.9 32.5 z m 0 9.7 L 0 29.3 v 4.8 L 27.9 47 L 56 34 v -4.8 l -28.1 13 z" fill="#bdbafa"/><g transform="translate(72)"><mask id="b" fill="#fff"><use transform="matrix(1,0,0,1,0,0)" xlink:href="#a"/></mask><path d="M 87.6 24.2 a 8.1 8.1 0 0 0 -2.2 -5.6 a 7.3 7.3 0 0 0 -2.3 -1.7 a 6.9 6.9 0 0 0 -2.9 -0.6 c -1 0 -2 0.2 -2.9 0.6 a 7.3 7.3 0 0 0 -2.3 1.7 a 8.1 8.1 0 0 0 -2.2 5.6 a 8.1 8.1 0 0 0 2.2 5.6 a 7.3 7.3 0 0 0 2.3 1.7 a 6.9 6.9 0 0 0 2.9 0.6 c 1 0 2 -0.2 2.9 -0.6 a 7.3 7.3 0 0 0 2.3 -1.7 a 8.1 8.1 0 0 0 2.2 -5.6 z m 6.4 0 c 0 1.9 -0.4 3.7 -1.1 5.4 a 13.1 13.1 0 0 1 -2.9 4.3 c -1.2 1.2 -2.7 2.2 -4.4 2.9 c -1.7 0.7 -3.5 1 -5.4 1 c -1.9 0 -3.7 -0.3 -5.3 -1 a 13.9 13.9 0 0 1 -4.4 -2.9 a 13.4 13.4 0 0 1 -2.9 -4.3 c -0.7 -1.6 -1.1 -3.4 -1.1 -5.3 c 0 -1.9 0.4 -3.6 1.1 -5.3 a 13.9 13.9 0 0 1 3 -4.3 a 13.7 13.7 0 0 1 4.4 -2.9 a 13.6 13.6 0 0 1 5.3 -1 c 1.9 0 3.7 0.3 5.4 1 c 1.7 0.7 3.1 1.6 4.4 2.9 c 1.2 1.2 2.2 2.6 2.9 4.3 c 0.7 1.7 1.1 3.4 1.1 5.4 z M 64.3 36.9 a 8.6 8.6 0 0 1 -1.7 0.6 c -0.6 0.1 -1.3 0.2 -2 0.2 a 9.8 9.8 0 0 1 -2.7 -0.4 a 6 6 0 0 1 -2.3 -1.2 c -0.7 -0.6 -1.2 -1.3 -1.6 -2.2 c -0.4 -0.9 -0.6 -2 -0.6 -3.3 V 0 h 6.5 v 29.5 c 0 1.1 0.2 1.8 0.6 2.2 c 0.4 0.4 0.9 0.6 1.5 0.6 c 0.7 0 1.5 -0.2 2.1 -0.7 v 5.3 z M 50.5 11.2 L 38.9 41.9 c -0.9 2.3 -2 3.9 -3.4 5 c -1.4 1 -3.1 1.5 -5 1.5 c -0.3 0 -0.6 0 -1 -0.1 a 7.4 7.4 0 0 1 -1 -0.2 l -2.1 -6 a 8.5 8.5 0 0 0 1.6 0.6 c 0.5 0.1 1 0.2 1.5 0.2 c 1 0 1.9 -0.2 2.8 -0.7 c 0.8 -0.5 1.5 -1.3 1.9 -2.6 l 0.9 -2.6 l -9.9 -25.8 h 7 l 5.9 16.6 l 5.6 -16.6 h 6.9 z M 23.5 7.3 H 6.8 v 8.3 h 16.5 v 5.6 H 6.8 v 15.8 H 0 V 1.4 h 23.5 v 5.9 z" fill="#000000" mask="ul(#b)"/></g></g></svg>
